<svg id="Logo" xmlns="http://www.w3.org/2000/svg" viewBox="0 0 24 24"><title>insta-24px</title><path d="M256,246.16c3.2,0,3.58,0,4.85.07a6.67,6.67,0,0,1,2.23.42,3.89,3.89,0,0,1,2.27,2.27,6.67,6.67,0,0,1,.42,2.23c.06,1.27.07,1.65.07,4.85s0,3.58-.07,4.85a6.67,6.67,0,0,1-.42,2.23,3.89,3.89,0,0,1-2.27,2.27,6.67,6.67,0,0,1-2.23.42c-1.27.06-1.65.07-4.85.07s-3.58,0-4.85-.07a6.67,6.67,0,0,1-2.23-.42,3.89,3.89,0,0,1-2.27-2.27,6.67,6.67,0,0,1-.42-2.23c-.06-1.27-.07-1.65-.07-4.85s0-3.58.07-4.85a6.67,6.67,0,0,1,.42-2.23,3.89,3.89,0,0,1,2.27-2.27,6.67,6.67,0,0,1,2.23-.42c1.27-.06,1.65-.07,4.85-.07m0-2.16c-3.26,0-3.67,0-4.95.07a8.76,8.76,0,0,0-2.91.56,6.07,6.07,0,0,0-3.51,3.51,8.76,8.76,0,0,0-.56,2.91c-.06,1.28-.07,1.69-.07,4.95s0,3.67.07,4.95a8.76,8.76,0,0,0,.56,2.91,6.07,6.07,0,0,0,3.51,3.51,8.76,8.76,0,0,0,2.91.56c1.28.06,1.69.07,4.95.07s3.67,0,4.95-.07a8.76,8.76,0,0,0,2.91-.56,6.07,6.07,0,0,0,3.51-3.51,8.76,8.76,0,0,0,.56-2.91c.06-1.28.07-1.69.07-4.95s0-3.67-.07-4.95a8.76,8.76,0,0,0-.56-2.91,6.07,6.07,0,0,0-3.51-3.51,8.76,8.76,0,0,0-2.91-.56c-1.28-.06-1.69-.07-4.95-.07Z" transform="translate(-244 -244)"/><path d="M256,249.84a6.16,6.16,0,1,0,6.16,6.16A6.16,6.16,0,0,0,256,249.84ZM256,260a4,4,0,1,1,4-4A4,4,0,0,1,256,260Z" transform="translate(-244 -244)"/><circle cx="18.41" cy="5.59" r="1.44"/></svg>